<?xml version="1.0"?>
<svg width="500" height="650" xmlns="http://www.w3.org/2000/svg" xmlns:xlink="http://www.w3.org/1999/xlink">
	<defs>
		<pattern id="potatoSkin" width="200" height="200" patternUnits="userSpaceOnUse">
			<rect x="0" y="0" width="200" height="200" style="fill: blanchedalmond" />
			<g style="fill: tan">
				<circle cx="179" cy="5" r="3" />
				<circle cx="96" cy="111" r="3" />
				<circle cx="72" cy="111" r="3" />
				<circle cx="40" cy="112" r="3" />
				<circle cx="76" cy="183" r="3" />
				<circle cx="38" cy="48" r="3" />
				<circle cx="197" cy="39" r="3" />
				<circle cx="180" cy="73" r="3" />
				<circle cx="158" cy="123" r="3" />
				<circle cx="116" cy="43" r="3" />
				<circle cx="178" cy="82" r="3" />
				<circle cx="34" cy="21" r="3" />
				<circle cx="81" cy="109" r="3" />
				<circle cx="185" cy="18" r="3" />
				<circle cx="90" cy="22" r="3" />
				<circle cx="166" cy="69" r="3" />
				<circle cx="28" cy="62" r="3" />
				<circle cx="12" cy="100" r="3" />
				<circle cx="173" cy="53" r="3" />
				<circle cx="44" cy="50" r="3" />
				<circle cx="68" cy="82" r="3" />
				<circle cx="98" cy="66" r="3" />
				<circle cx="153" cy="78" r="3" />
				<circle cx="171" cy="112" r="3" />
				<circle cx="33" cy="88" r="3" />
				<circle cx="187" cy="11" r="3" />
				<circle cx="170" cy="21" r="3" />
				<circle cx="64" cy="83" r="3" />
				<circle cx="130" cy="81" r="3" />
				<circle cx="133" cy="20" r="3" />
				<circle cx="104" cy="99" r="3" />
				<circle cx="89" cy="164" r="3" />
				<circle cx="161" cy="102" r="3" />
				<circle cx="96" cy="135" r="3" />
				<circle cx="187" cy="140" r="3" />
				<circle cx="185" cy="55" r="3" />
				<circle cx="55" cy="115" r="3" />
				<circle cx="153" cy="40" r="3" />
				<circle cx="193" cy="125" r="3" />
				<circle cx="184" cy="58" r="3" />
				<circle cx="45" cy="172" r="3" />
				<circle cx="101" cy="47" r="3" />
				<circle cx="193" cy="165" r="3" />
				<circle cx="162" cy="124" r="3" />
				<circle cx="47" cy="95" r="3" />
			</g>
		</pattern>
		<pattern id="potatoLegs" width="6" height="6" style="stroke: black; stroke-width: 2" patternUnits="userSpaceOnUse">
			<rect x="0" y="0" width="6" height="6" style="fill: gray; stroke: none" />
			<line x1="0" y1="3" x2="6" y2="3" />
		</pattern>
		<g id="potato">
			<g style="fill: black">
				<ellipse transform="translate(-55,335) rotate(10)" rx="15" ry="10" />
				<ellipse transform="translate(55,335) rotate(-10)" rx="15" ry="10" />

				<ellipse transform="translate(-150,70) rotate(-50)" rx="15" ry="10" />
				<ellipse transform="translate(150,70) rotate(50)" rx="15" ry="10" />
			</g>
			<g style="stroke: black; fill: none; stroke-width: 10; stroke: url(#potatoLegs)">
				<g>
					<line x1="-90" y1="110" x2="-150" y2="70" />
					<line x1="90" y1="110" x2="150" y2="70" />
				</g>
				<g>
					<line x1="-35" y1="265" x2="-55" y2="335" />
					<line x1="35" y1="265" x2="55" y2="335" />
				</g>
			</g>
			<g style="fill: black">
				<!--<circle cx="-150" cy="70" r="10" />
				<circle cx="150" cy="70" r="10" />-->

				<!--<ellipse cx="-55" cy="345" rx="5" ry="2" />
				<ellipse cx="55" cy="345" rx="5" ry="2" />-->
			</g>
			<rect x="-100" y="0" width="200" height="270" style="fill: url(#potatoSkin); stroke: black" rx="90" ry="90" />
			<g style="fill: black">
				<circle cx="-40" cy="80" r="10" />
				<circle cx="30" cy="80" r="10" />
			</g>
			<g style="stroke: black; fill: none">
				<circle cx="-35" cy="80" r="30" />
				<circle cx="35" cy="80" r="30" />
				<line x1="-5" y1="80" x2="5" y2="80" />
				<line x1="-65" y1="80" x2="-100" y2="70" />
				<line x1="65" y1="80" x2="100" y2="70" />
				<path d="M0 80 l-20 50 l20 0" />
				<path d="M-65 135 l-10 10 l5 -5 c10 25, 120 25, 135 0 l5 5 l-10 -10" />
			</g>
		</g>
		<path id="topPath" d="M40 200 C0 50 500 50 460 200" />
		<path id="bottomPath" d="M0 530 C0 645 500 645 510 530" />
	</defs>
	<use xlink:href="#potato" x="250" y="180" />
	<g style="fill: saddlebrown; stroke: black">
		<rect x="130" y="180" width="240" height="40" />
		<rect x="180" y="110" width="140" height="70" />
		<rect x="180" y="170" width="140" height="10" style="fill: red" />
	</g>
	<g style="fill: red; stroke: black; stroke-width: 2; font-family: monospace">
		<text font-size="110" text-anchor="middle">
			<textPath xlink:href="#topPath" startOffset="280">
				TAT R
			</textPath>
		</text>
		<text font-size="110" text-anchor="middle">
			<textPath xlink:href="#bottomPath" startOffset="290">
				T TS
			</textPath>
		</text>
	</g>
	<use xlink:href="#potato" transform="translate(344, 14) scale(0.29) rotate(17)" />
	<use xlink:href="#potato" transform="translate(230, 535) scale(0.29) rotate(5)" />
</svg>
