<svg xmlns="http://www.w3.org/2000/svg" width="129.555" height="112.003" viewBox="0 0 121.4574 105.00289"><path d="M58.708 23.76c1.87 0 3.687.172 5.422.488l4.125-4.3c-2.885-.998-6.124-1.559-9.547-1.559-5.822 0-11.107 1.623-15.025 4.265l3.596 3.408c3.324-1.458 7.236-2.302 11.429-2.302"/><path d="M58.708 18.39c3.423 0 6.662.56 9.547 1.558l4.486-4.67c-4.186-1.65-8.96-2.588-14.033-2.588-7.563 0-14.463 2.083-19.73 5.507l4.705 4.457c3.918-2.642 9.203-4.265 15.025-4.265M37.168 36.662c.378-1.542 1.074-3.004 2.035-4.355l-1.807-1.827a11.45 11.45 0 0 0-.557 3.497c0 .916.114 1.81.33 2.685M23.815 46.768l-.76 3.931 7.55-3.249c-.477-1-.57-2.308-.845-3.37l-5.945 2.688zM18.502 3.994L7.577 63.82l5.168.421L23.562 3.545l-5.06.449z"/><path d="M55.242 38.42v-4.837l-7.935-7.522-3.595-3.406-4.707-4.46-15.46-14.652-10.822 60.7L35.62 54.175c-2.278-2.015-3.895-4.163-5.095-6.693l-7.453 3.2.747-3.913 4.83-25.175.403-2.113 3.988 4.016 5.132 5.168 2.202 2.221 9.058 7.801-8.793 4.03c2.284 2.282 4.989 4.29 8.635 5.425l10.97-4.926-5.002-4.796zM80.246 36.662c.214-.874.33-1.77.33-2.685 0-2.703-.988-5.253-2.688-7.47l-2.605 2.698c2.502 2.082 4.28 4.645 4.963 7.457M85.143 62.269l-6.173-5.93a30.652 30.652 0 0 1-3.147 1.874l9.32 8.947 28.736-29.932-.031-4.848-28.705 29.889z"/><path d="M64.201 42.166l-5.083-4.882-3.89-3.714-.014 4.851 5.469 5.253 5.228 5.021a26.857 26.857 0 0 0 3.794-1.244l-5.504-5.285zM84.183 15.097l-4.091 4.26-4.513 4.702-3.076 3.202-5.829 6.071 2.441 2.343 6.203-6.458 2.594-2.7 4.75-4.947 1.52-1.584 15.803 15.148 2.444-2.537-18.246-17.5z"/><path d="M82.663 21.57l-4.751 4.947c1.7 2.215 2.665 4.756 2.665 7.46 0 .916-.118 1.811-.331 2.685-.555 2.274-1.8 4.38-3.58 6.203-1.82 1.865-4.197 3.435-6.962 4.586a26.804 26.804 0 0 1-3.793 1.244 29.989 29.989 0 0 1-7.203.868c-3.11 0-6.064-.463-8.741-1.297-3.648-1.136-6.775-2.959-9.06-5.243a15.254 15.254 0 0 1-2.149-2.668 12.488 12.488 0 0 1-1.59-3.693 11.2 11.2 0 0 1-.329-2.685c0-1.204.198-2.374.557-3.497l-5.458-5.525c-1.999 2.963-3.125 6.302-3.125 9.84 0 .91.084 1.806.228 2.686.35 2.139 1.116 4.177 2.23 6.082.56.957 1.21 1.878 1.94 2.76 1.92 2.315 4.396 4.35 7.297 5.998 5.039 2.867 11.348 4.576 18.2 4.576 4.794 0 9.32-.835 13.334-2.317a33.412 33.412 0 0 0 3.505-1.524c2.587-1.309 4.884-2.91 6.8-4.739 3.215-3.072 5.362-6.784 6.027-10.836.144-.88.228-1.776.228-2.686 0-4.96-2.209-9.538-5.939-13.225"/><path d="M64.175 42.202l5.485 5.268c2.761-1.152 5.16-2.703 6.983-4.57l-7.52-7.22-2.443-2.344 5.798-6.038 3.073-3.202 4.514-4.704 4.093-4.259 18.202 17.478-2.442 2.545-14.914 15.529c-1.57 2.15-3.608 4.06-6.016 5.71l6.128 5.912 28.738-29.929-29.93-28.737-11.209 11.674-4.486 4.67-4.129 4.3-8.872 9.285 8.947 8.632zM38.882 40.503l.16.262c.439.698 1.041 1.338 1.612 1.974l8.942-4.13-20.547-19.135-.56 2.96 16.12 15.959-5.727 2.11z"/><path d="M88.602 34.794c0 .91-.084 1.807-.228 2.687-.665 4.052-2.812 7.763-6.027 10.836-1.917 1.829-4.213 3.43-6.8 4.739a33.412 33.412 0 0 1-3.505 1.523c-4.014 1.483-8.54 2.32-13.334 2.32-6.853 0-13.161-1.71-18.199-4.578-2.902-1.65-5.377-3.683-7.297-6a20.521 20.521 0 0 1-1.939-2.758c-1.115-1.905-1.883-3.944-2.231-6.082a16.506 16.506 0 0 1-.229-2.687c0-.286.021-.568.035-.85-.003-.016-.008-.037-.009-.05-.146.88-.026 5.364-.026 6.274 0 1.441.192 2.849.549 4.214.278 1.065.66 2.1 1.136 3.101 1.2 2.531 3 4.851 5.281 6.866 5.486 4.84 13.721 7.92 22.929 7.92 6.39 0 12.304-1.487 17.164-4.01a30.54 30.54 0 0 0 3.14-1.875c2.408-1.648 4.448-3.585 6.02-5.737 2.276-3.116 3.57-6.686 3.57-10.479 0-.801.068-4.592-.009-6.099-.014-.206.009.464.009.725M8.301 71.15H28.76l-1.928 7.877h-9.805l-.97 4.14h10.23l-1.78 7.3H14.41l-2.425 10.37H1.417L8.301 71.15zM31.54 71.15h10.57l-6.884 29.686h-10.57l6.885-29.686zM52.68 85.304c3.393 0 5.768-2.004 5.768-4.851 0-1.514-1.115-2.27-3.296-2.27-.63 0-.97.043-1.65.177l-1.6 6.854c.34.045.39.09.777.09m-7.805-13.976l.679-.089c3.394-.4 7.611-.668 9.939-.668 3.877 0 6.883.445 9.162 1.38 2.909 1.202 4.654 3.828 4.654 6.988 0 2.715-.921 5.296-2.666 7.299-1.504 1.736-2.86 2.581-5.673 3.427l-.679.223c.292.222.388.312.534.445.824.935 3.296 5.742 5.381 10.503H54.57c-1.503-4.227-1.94-5.34-3.927-10.147l-2.326 10.147h-10.28l6.837-29.508zM94.396 71.15h25.644l-1.791 8.594h-7.611l-5.043 21.092H95.026l5.044-21.092h-8.25l2.576-8.594zM110.472 98.024c.23 0 .36-.11.36-.318 0-.2-.12-.31-.35-.31-.05 0-.058 0-.11.01v.608c.04.01.06.01.1.01m-.927-1.236c.131-.01.151-.019.409-.039.26-.021.368-.031.478-.031.848 0 1.265.33 1.265.958 0 .378-.157.607-.497.737l-.04.01c.03.02.04.03.05.049.09.08.389.529.639.937h-.968a18.19 18.19 0 0 0-.509-.886v.886h-.827v-2.621zm.997 3.578a2.251 2.251 0 0 0 2.262-2.252 2.254 2.254 0 0 0-2.262-2.262 2.25 2.25 0 0 0-2.252 2.252 2.24 2.24 0 0 0 2.252 2.262m0-4.833a2.573 2.573 0 0 1 2.58 2.571 2.569 2.569 0 0 1-2.58 2.582c-1.446 0-2.572-1.128-2.572-2.582a2.553 2.553 0 0 1 2.572-2.571"/><path d="M67.245 100.082c2.972.883 6.22 1.378 9.257 1.378 4.12 0 7.272-.934 9.987-2.893 3.005-2.137 4.945-5.43 4.945-8.411 0-2.004-.872-3.829-2.425-5.12-1.212-.979-2.472-1.735-5.041-2.936l-2.085-.98c-.679-.357-1.019-.712-1.019-1.113 0-1.067 1.358-1.869 3.2-1.869 1.379 0 3.021.4 6.16 1.427l2.166-8.035c-2.347-.64-4.633-.958-6.92-.958-8.63 0-15.27 4.718-15.27 10.815 0 3.204 2.133 5.474 7.465 7.968 2.52 1.156 2.958 1.468 2.958 2.268 0 1.202-1.31 1.96-3.443 1.96-1.89 0-4.315-.58-7.61-1.78h-.005l-2.32 8.28z"/></svg>